<?xml version="1.0" encoding="UTF-8"?>
<svg id="Capa_1" data-name="Capa 1" xmlns="http://www.w3.org/2000/svg" xmlns:xlink="http://www.w3.org/1999/xlink" viewBox="0 0 328.85 302.3">
  <defs>
    <style>
      .cls-1 {
        fill: #eff1f4;
        stroke-width: 0px;
      }
    </style>
    <symbol id="Casa_sonia" data-name="Casa sonia" viewBox="0 0 151.18 145.86">
      <g>
        <path class="cls-1" d="M81.87,95.85c-3.93,2.77-7.7,5.49-11.73,7.82-5.96,3.46-12.26,6.07-19.15,6.77-13.71,1.39-26.01-1.72-35.84-12.01-3.87-4.05-6.21-9.02-8.24-14.16-2.4-6.08-3.88-12.35-4.21-18.89-.87-17.24,3.28-33.19,12.4-47.8,4.3-6.9,10-12.35,17.6-15.62,13.84-5.95,26.51,2.53,30.04,14.07.91,2.98,1.04,6.02.68,9.07-.32,2.68-2.51,4.11-4.78,3.28-1.44-.52-2.34-1.94-2.33-3.79.02-4.05-1.35-7.57-3.89-10.68-4.2-5.14-10.57-6.84-16.85-4.66-4.33,1.5-7.48,4.41-10.39,7.79-4.37,5.07-7.06,11.03-9.43,17.17-2.41,6.26-3.7,12.77-4.34,19.46-.81,8.49-.09,16.77,2.77,24.82,1.63,4.6,3.5,9.09,6.63,12.93,5.16,6.33,11.88,9.89,19.85,11.25,10.86,1.86,20.56-1.22,29.6-7.03,4.48-2.88,8.63-6.13,12.47-9.86,6.26-6.07,13.16-11.38,20.37-16.29,1.79-1.22,1.89-.93.19-2.6-3.76-3.69-7.78-7.13-11.36-11.01-3.26-3.53-6.3-7.25-9.08-11.15-2.47-3.46-3.69-7.42-3.78-11.72-.1-4.61.47-9.08,2.9-13.1,4.55-7.52,11.33-11.73,20.04-12.14,9.1-.43,15.99,3.78,20.69,11.55.66,1.09,1.35,2.17,1.27,3.58-.12,2.11-1.77,3.37-3.8,2.75-1.07-.33-1.89-.99-2.37-2.02-2.79-5.91-7.6-8.9-13.97-9.3-3.21-.2-6.31.69-8.98,2.59-5.22,3.71-7.77,8.9-7.81,15.21-.02,3.09,1.11,6.01,2.8,8.62,3.56,5.5,8.02,10.29,12.15,15.35,2.31,2.83,4.82,5.48,7.3,8.17.6.65,1.04.65,1.77.21,10.69-6.41,21.95-11.63,33.71-15.74.31-.11.63-.23.95-.27,1.75-.26,3.25.63,3.73,2.22.46,1.52-.34,3.16-1.97,3.86-2.2.95-4.44,1.81-6.64,2.76-8.78,3.78-17.32,8.05-25.66,12.73-.66.37-.7.69-.33,1.29,3.74,6.14,5.01,12.91,4.6,19.95-.57,9.93-6.99,16.76-15.45,18.46-9.5,1.9-18.61-3.35-21.68-12.54-.14-.41-.28-.82-.47-1.35ZM112.98,87.44c-.06-4.42-.88-8.62-3.35-12.41-.59-.9-1-1.1-1.97-.47-5.03,3.25-9.75,6.88-14.34,10.71-4.57,3.83-5.08,10.79-.98,15.16,2.67,2.84,6,3.64,9.78,3.13,4.58-.62,9.21-4.74,10.13-9.22.47-2.27.75-4.58.73-6.91Z"/>
        <g>
          <path class="cls-1" d="M1.27,131.37c.85-1.45,2-2.58,3.46-3.39,1.46-.81,3.05-1.22,4.78-1.22,1.98,0,3.75.49,5.29,1.46,1.54.97,2.67,2.35,3.36,4.14h-3.67c-.48-.98-1.15-1.71-2.01-2.2s-1.85-.72-2.97-.72c-1.23,0-2.33.28-3.29.83-.96.55-1.72,1.35-2.26,2.38-.55,1.04-.82,2.24-.82,3.62s.27,2.58.82,3.62c.54,1.04,1.3,1.83,2.26,2.4.96.56,2.06.84,3.29.84,1.12,0,2.12-.24,2.97-.72.86-.48,1.53-1.21,2.01-2.2h3.67c-.7,1.79-1.82,3.16-3.36,4.12-1.55.96-3.31,1.45-5.29,1.45-1.75,0-3.35-.41-4.79-1.22s-2.59-1.94-3.44-3.39c-.85-1.45-1.27-3.08-1.27-4.9s.42-3.46,1.27-4.9Z"/>
          <path class="cls-1" d="M21.63,134.24c.62-1.14,1.46-2.03,2.52-2.67s2.24-.95,3.52-.95c1.16,0,2.17.23,3.04.68.87.46,1.56,1.02,2.08,1.7v-2.14h3.08v14.76h-3.08v-2.2c-.52.7-1.22,1.28-2.12,1.74-.89.46-1.91.7-3.05.7-1.27,0-2.43-.33-3.48-.98-1.05-.65-1.89-1.56-2.5-2.73-.62-1.17-.92-2.49-.92-3.98s.31-2.79.92-3.94ZM32.16,135.58c-.42-.75-.97-1.32-1.65-1.71-.68-.39-1.41-.59-2.2-.59s-1.52.19-2.2.58c-.68.38-1.23.95-1.65,1.69s-.63,1.62-.63,2.64.21,1.91.63,2.68c.42.77.97,1.35,1.66,1.75.69.4,1.42.6,2.18.6s1.52-.2,2.2-.59c.68-.39,1.23-.97,1.65-1.73.42-.76.63-1.65.63-2.67s-.21-1.9-.63-2.65Z"/>
          <path class="cls-1" d="M42.12,145.23c-.92-.42-1.65-.99-2.18-1.71s-.82-1.53-.86-2.42h3.16c.05.63.35,1.15.9,1.57.54.42,1.23.63,2.05.63s1.52-.17,2-.5c.47-.33.71-.75.71-1.27,0-.55-.26-.96-.79-1.23s-1.36-.56-2.5-.88c-1.11-.3-2.01-.6-2.71-.88-.7-.29-1.3-.72-1.81-1.31-.51-.59-.76-1.37-.76-2.33,0-.79.23-1.5.7-2.16.46-.65,1.13-1.17,2-1.54.87-.38,1.86-.56,2.99-.56,1.68,0,3.03.42,4.06,1.27,1.03.85,1.58,2,1.65,3.47h-3.05c-.05-.66-.32-1.19-.8-1.58s-1.13-.59-1.96-.59-1.42.15-1.85.46c-.43.3-.64.71-.64,1.21,0,.39.14.72.43.99.29.27.63.48,1.04.63s1.02.34,1.82.58c1.07.29,1.95.58,2.64.87.69.29,1.28.73,1.78,1.3.5.57.76,1.33.78,2.28,0,.84-.23,1.59-.7,2.25-.46.66-1.12,1.18-1.97,1.55-.85.37-1.84.56-2.99.56s-2.2-.21-3.12-.63Z"/>
          <path class="cls-1" d="M54.09,134.24c.62-1.14,1.46-2.03,2.52-2.67s2.24-.95,3.52-.95c1.16,0,2.17.23,3.04.68.87.46,1.56,1.02,2.08,1.7v-2.14h3.08v14.76h-3.08v-2.2c-.52.7-1.22,1.28-2.12,1.74-.89.46-1.91.7-3.05.7-1.27,0-2.43-.33-3.48-.98-1.05-.65-1.89-1.56-2.5-2.73-.62-1.17-.92-2.49-.92-3.98s.31-2.79.92-3.94ZM64.62,135.58c-.42-.75-.97-1.32-1.65-1.71-.68-.39-1.41-.59-2.2-.59s-1.52.19-2.2.58c-.68.38-1.23.95-1.65,1.69s-.63,1.62-.63,2.64.21,1.91.63,2.68c.42.77.97,1.35,1.66,1.75.69.4,1.42.6,2.18.6s1.52-.2,2.2-.59c.68-.39,1.23-.97,1.65-1.73.42-.76.63-1.65.63-2.67s-.21-1.9-.63-2.65Z"/>
          <path class="cls-1" d="M82.07,145.15c-1-.44-1.79-1.06-2.36-1.86-.57-.8-.86-1.74-.86-2.81h3.27c.07.8.39,1.46.95,1.98s1.35.78,2.37.78,1.88-.25,2.46-.76.88-1.16.88-1.97c0-.62-.18-1.13-.55-1.53-.37-.39-.82-.7-1.37-.91-.55-.21-1.3-.45-2.26-.7-1.21-.32-2.2-.65-2.96-.98-.76-.33-1.41-.84-1.94-1.54-.54-.7-.8-1.62-.8-2.79,0-1.07.27-2.01.8-2.81.54-.8,1.29-1.42,2.25-1.85.96-.43,2.08-.64,3.35-.64,1.8,0,3.28.45,4.43,1.35,1.15.9,1.79,2.14,1.92,3.71h-3.37c-.05-.68-.37-1.26-.96-1.74-.59-.48-1.37-.72-2.33-.72-.88,0-1.59.22-2.14.67-.55.45-.83,1.09-.83,1.93,0,.57.17,1.04.52,1.41s.79.66,1.33.87c.54.21,1.27.45,2.2.7,1.23.34,2.24.68,3.01,1.02.78.34,1.44.86,1.98,1.57s.82,1.65.82,2.83c0,.95-.25,1.84-.76,2.68-.51.84-1.25,1.51-2.22,2.02-.97.51-2.12.76-3.44.76-1.25,0-2.37-.22-3.37-.66Z"/>
          <path class="cls-1" d="M98.11,144.91c-1.12-.63-2.01-1.53-2.65-2.68-.64-1.15-.96-2.49-.96-4s.33-2.83.99-3.99c.66-1.16,1.56-2.05,2.71-2.68,1.14-.62,2.42-.94,3.83-.94s2.69.31,3.83.94c1.14.63,2.04,1.52,2.71,2.68.66,1.16.99,2.49.99,3.99s-.34,2.83-1.02,3.99c-.68,1.16-1.6,2.06-2.77,2.69-1.17.63-2.46.95-3.87.95s-2.65-.32-3.78-.95ZM104.1,142.65c.69-.37,1.25-.94,1.67-1.69.43-.75.64-1.66.64-2.73s-.21-1.98-.62-2.72c-.41-.74-.96-1.3-1.63-1.67-.68-.37-1.41-.56-2.2-.56s-1.51.19-2.18.56-1.2.93-1.59,1.67c-.39.74-.59,1.65-.59,2.72,0,1.59.41,2.82,1.22,3.68.81.87,1.83,1.3,3.07,1.3.79,0,1.52-.19,2.21-.56Z"/>
          <path class="cls-1" d="M123.15,131.34c.92.48,1.64,1.2,2.16,2.14s.78,2.09.78,3.43v8.71h-3.03v-8.25c0-1.32-.33-2.33-.99-3.04-.66-.7-1.56-1.06-2.71-1.06s-2.05.35-2.72,1.06c-.67.71-1,1.72-1,3.04v8.25h-3.05v-14.76h3.05v1.69c.5-.61,1.14-1.08,1.92-1.42.78-.34,1.6-.51,2.48-.51,1.16,0,2.2.24,3.12.72Z"/>
          <path class="cls-1" d="M130.12,128.34c-.38-.38-.56-.84-.56-1.39s.19-1.02.56-1.39c.37-.38.84-.56,1.39-.56s.99.19,1.37.56.56.84.56,1.39-.19,1.02-.56,1.39c-.38.37-.83.56-1.37.56s-1.02-.19-1.39-.56ZM133.02,130.86v14.76h-3.05v-14.76h3.05Z"/>
          <path class="cls-1" d="M136.94,134.24c.62-1.14,1.46-2.03,2.52-2.67s2.24-.95,3.52-.95c1.16,0,2.17.23,3.04.68.87.46,1.56,1.02,2.08,1.7v-2.14h3.08v14.76h-3.08v-2.2c-.52.7-1.22,1.28-2.12,1.74-.89.46-1.91.7-3.05.7-1.27,0-2.43-.33-3.48-.98-1.05-.65-1.89-1.56-2.5-2.73-.62-1.17-.92-2.49-.92-3.98s.31-2.79.92-3.94ZM147.47,135.58c-.42-.75-.97-1.32-1.65-1.71-.68-.39-1.41-.59-2.2-.59s-1.52.19-2.2.58c-.68.38-1.23.95-1.65,1.69s-.63,1.62-.63,2.64.21,1.91.63,2.68c.42.77.97,1.35,1.66,1.75.69.4,1.42.6,2.18.6s1.52-.2,2.2-.59c.68-.39,1.23-.97,1.65-1.73.42-.76.63-1.65.63-2.67s-.21-1.9-.63-2.65Z"/>
        </g>
      </g>
    </symbol>
  </defs>
  <use width="151.18" height="145.86" transform="translate(67 57.15) scale(1.29)" xlink:href="#Casa_sonia"/>
</svg>