<?xml version="1.0" encoding="UTF-8"?>
<svg id="Capa_1" data-name="Capa 1" xmlns="http://www.w3.org/2000/svg" xmlns:xlink="http://www.w3.org/1999/xlink" viewBox="0 0 720 1280">
  <defs>
    <style>
      .cls-1, .cls-2 {
        opacity: .7;
      }

      .cls-1, .cls-3, .cls-4, .cls-5, .cls-6 {
        stroke-width: 0px;
      }

      .cls-1, .cls-5 {
        fill: #eff1f4;
      }

      .cls-3 {
        fill: #282828;
      }

      .cls-4 {
        fill: none;
      }

      .cls-6 {
        fill: url(#Motivo_nuevo);
        opacity: .2;
      }
    </style>
    <pattern id="Motivo_nuevo" data-name="Motivo nuevo" x="0" y="0" width="168.02" height="128" patternTransform="translate(15120.61 15726.31) scale(3.07)" patternUnits="userSpaceOnUse" viewBox="0 0 168.02 128">
      <g>
        <rect class="cls-4" y="0" width="168.02" height="128"/>
        <path class="cls-1" d="M37.35,60.8c-1.85.82-3.39,2.02-4.62,3.59l4.56,4.13c.82-.99,1.73-1.74,2.72-2.25.99-.51,2.08-.76,3.26-.76,1.04,0,1.99.17,2.86.51.87.34,1.61.83,2.23,1.47.62.64,1.1,1.41,1.45,2.3.35.89.53,1.88.53,2.97s-.18,2.08-.53,2.97c-.35.89-.83,1.66-1.45,2.3-.61.64-1.36,1.13-2.23,1.47s-1.82.51-2.86.51c-1.18,0-2.27-.25-3.26-.76s-1.9-1.24-2.72-2.21l-4.56,4.13c1.23,1.57,2.77,2.76,4.62,3.57,1.85.81,3.94,1.21,6.28,1.21,2,0,3.85-.32,5.54-.96,1.69-.64,3.16-1.55,4.42-2.71,1.25-1.17,2.23-2.57,2.93-4.18.7-1.62,1.05-3.39,1.05-5.32s-.35-3.7-1.05-5.32c-.7-1.62-1.68-3.01-2.93-4.18-1.26-1.17-2.73-2.08-4.42-2.72-1.69-.64-3.54-.96-5.54-.96-2.34,0-4.44.41-6.28,1.23Z"/>
        <path class="cls-1" d="M124.64,24.16c-.8.36-1.47.88-2.01,1.56l1.99,1.8c.36-.43.75-.76,1.18-.98.43-.22.9-.33,1.42-.33.45,0,.87.07,1.25.22.38.15.7.36.97.64.27.28.48.61.63,1,.15.39.23.82.23,1.29s-.08.9-.23,1.29c-.15.39-.36.72-.63,1-.27.28-.59.49-.97.64s-.79.22-1.25.22c-.51,0-.99-.11-1.42-.33s-.83-.54-1.18-.96l-1.99,1.8c.54.68,1.21,1.2,2.01,1.55.8.35,1.72.53,2.74.53.87,0,1.68-.14,2.41-.42s1.38-.67,1.92-1.18c.55-.51.97-1.12,1.28-1.82.31-.7.46-1.48.46-2.32s-.15-1.61-.46-2.32c-.3-.7-.73-1.31-1.28-1.82-.55-.51-1.19-.9-1.92-1.18-.74-.28-1.54-.42-2.41-.42-1.02,0-1.93.18-2.74.54Z"/>
        <path class="cls-1" d="M93.43,91.14c1.34-.6,2.35-1.41,3.02-2.41.67-1,1.01-2.1,1.01-3.29,0-1.07-.21-1.96-.64-2.67-.43-.71-.99-1.29-1.68-1.72-.69-.44-1.45-.79-2.26-1.05-.82-.26-1.64-.48-2.47-.66-.83-.18-1.58-.35-2.26-.51-.68-.16-1.24-.38-1.66-.64-.43-.26-.64-.63-.64-1.1,0-.31.11-.6.32-.88.21-.27.57-.5,1.05-.67.49-.17,1.13-.26,1.93-.26.9,0,1.82.13,2.77.38s1.92.65,2.89,1.2l1.75-4.27c-.99-.6-2.14-1.06-3.43-1.36-1.3-.3-2.61-.45-3.96-.45-2.01,0-3.68.3-5.02.91-1.34.6-2.35,1.4-3.01,2.4-.66.99-.99,2.09-.99,3.3,0,1.09.21,2,.63,2.72s.97,1.3,1.65,1.75c.68.45,1.44.81,2.28,1.08s1.66.49,2.47.66c.81.17,1.56.34,2.25.53.69.19,1.25.41,1.68.67.43.26.64.62.64,1.07,0,.35-.11.65-.34.91-.22.25-.57.45-1.05.58s-1.13.2-1.94.2c-1.19,0-2.38-.19-3.58-.57-1.2-.38-2.26-.86-3.17-1.45l-1.9,4.29c.95.64,2.21,1.17,3.75,1.59,1.55.42,3.17.63,4.86.63,2.03,0,3.71-.3,5.05-.91Z"/>
        <path class="cls-1" d="M90.01,9.79l3.35-8.34h-1.08l3.35,8.34h2.85L94.19.11h-2.7l-4.27,9.68h2.79ZM95.7,7.9l-.71-2.01h-4.73l-.71,2.01h6.14Z"/>
        <path class="cls-1" d="M125.43,21.79l3.35-8.34h-1.08l3.35,8.34h2.85l-4.29-9.68h-2.7l-4.27,9.68h2.79ZM131.11,19.9l-.71-2.01h-4.73l-.71,2.01h6.14Z"/>
        <path class="cls-1" d="M119.8,46.61l3.35-8.34h-1.08l3.35,8.34h2.85l-4.29-9.68h-2.7l-4.27,9.68h2.79ZM125.48,44.72l-.71-2.01h-4.73l-.71,2.01h6.14Z"/>
        <path class="cls-1" d="M105.03,8.77c.53-.24.92-.55,1.19-.95.26-.39.4-.82.4-1.29,0-.42-.08-.77-.25-1.05-.17-.28-.39-.5-.66-.68-.27-.17-.57-.31-.89-.41-.32-.1-.64-.19-.97-.26-.33-.07-.62-.14-.89-.2-.27-.06-.49-.15-.65-.25-.17-.1-.25-.25-.25-.43,0-.12.04-.24.13-.34.08-.11.22-.2.41-.26.19-.07.44-.1.76-.1.35,0,.72.05,1.09.15s.75.26,1.14.47l.69-1.68c-.39-.24-.84-.41-1.35-.53-.51-.12-1.03-.18-1.56-.18-.79,0-1.45.12-1.97.36-.53.24-.92.55-1.18.94-.26.39-.39.82-.39,1.3,0,.43.08.78.25,1.07s.38.51.65.69c.27.18.57.32.9.42s.65.19.97.26c.32.07.61.13.88.21.27.07.49.16.66.26.17.1.25.24.25.42,0,.14-.04.26-.13.36-.09.1-.23.18-.41.23s-.44.08-.76.08c-.47,0-.94-.07-1.41-.22-.47-.15-.89-.34-1.25-.57l-.75,1.69c.37.25.87.46,1.47.63.61.16,1.24.25,1.91.25.8,0,1.46-.12,1.99-.36Z"/>
        <path class="cls-1" d="M108.21,64.05c.88-.4,1.54-.92,1.99-1.58.44-.66.66-1.38.66-2.16,0-.7-.14-1.29-.42-1.76-.28-.47-.65-.84-1.1-1.13-.45-.29-.95-.52-1.49-.69-.54-.17-1.08-.32-1.62-.43-.54-.12-1.04-.23-1.49-.34-.45-.11-.81-.25-1.09-.42-.28-.17-.42-.41-.42-.72,0-.2.07-.4.21-.58.14-.18.37-.33.69-.44.32-.11.74-.17,1.27-.17.59,0,1.2.08,1.82.25s1.26.43,1.9.79l1.15-2.8c-.65-.4-1.4-.69-2.25-.89-.85-.2-1.72-.3-2.6-.3-1.32,0-2.42.2-3.3.59-.88.4-1.54.92-1.98,1.57-.44.65-.65,1.38-.65,2.17,0,.72.14,1.31.41,1.78s.64.86,1.08,1.15c.45.29.95.53,1.5.71s1.09.32,1.62.43c.53.11,1.02.22,1.48.35.45.12.82.27,1.1.44.28.17.42.41.42.7,0,.23-.07.43-.22.59-.15.17-.38.29-.69.38s-.74.13-1.28.13c-.78,0-1.56-.12-2.35-.37-.79-.25-1.48-.57-2.08-.95l-1.25,2.82c.63.42,1.45.77,2.47,1.05,1.02.28,2.08.41,3.19.41,1.33,0,2.44-.2,3.32-.59Z"/>
        <path class="cls-1" d="M122.34,95.13c1.93-.73,3.6-1.76,5.03-3.09,1.42-1.33,2.53-2.9,3.32-4.7s1.18-3.79,1.18-5.96-.4-4.11-1.2-5.9-1.91-3.35-3.32-4.68c-1.41-1.33-3.08-2.36-5.01-3.09s-4.03-1.1-6.31-1.1-4.38.37-6.31,1.1-3.6,1.77-5.01,3.11c-1.41,1.34-2.52,2.91-3.32,4.7-.8,1.79-1.2,3.74-1.2,5.86s.4,4.12,1.2,5.92c.8,1.8,1.9,3.38,3.32,4.72,1.41,1.34,3.09,2.38,5.03,3.11,1.94.73,4.03,1.1,6.29,1.1s4.38-.37,6.31-1.1ZM113,88.98c-.94-.38-1.76-.93-2.46-1.65-.71-.72-1.25-1.57-1.63-2.56s-.57-2.11-.57-3.36.19-2.37.57-3.36.92-1.85,1.63-2.56c.71-.72,1.53-1.27,2.46-1.65s1.95-.57,3.03-.57,2.1.19,3.03.57,1.75.93,2.44,1.65c.69.72,1.24,1.57,1.63,2.56.39.99.59,2.11.59,3.36s-.2,2.37-.59,3.36c-.39.99-.93,1.85-1.63,2.56-.69.72-1.51,1.27-2.44,1.65-.94.38-1.95.57-3.03.57s-2.09-.19-3.03-.57Z"/>
        <path class="cls-1" d="M101.81,21.61c.65-.25,1.22-.6,1.71-1.05.48-.45.86-.98,1.13-1.6s.4-1.29.4-2.03-.14-1.4-.41-2.01-.65-1.14-1.13-1.59c-.48-.45-1.05-.8-1.7-1.05s-1.37-.37-2.14-.37-1.49.12-2.14.37-1.22.6-1.7,1.06c-.48.46-.86.99-1.13,1.6-.27.61-.41,1.27-.41,1.99s.14,1.4.41,2.01c.27.61.65,1.15,1.13,1.6.48.46,1.05.81,1.71,1.06.66.25,1.37.37,2.14.37s1.49-.12,2.14-.37ZM98.63,19.53c-.32-.13-.6-.32-.84-.56-.24-.24-.42-.54-.55-.87s-.19-.72-.19-1.14.06-.8.19-1.14.31-.63.55-.87c.24-.24.52-.43.84-.56s.66-.19,1.03-.19.71.06,1.03.19.59.32.83.56c.24.24.42.54.55.87.13.34.2.72.2,1.14s-.07.8-.2,1.14c-.13.34-.32.63-.55.87-.23.24-.51.43-.83.56-.32.13-.66.19-1.03.19s-.71-.06-1.03-.19Z"/>
        <path class="cls-1" d="M158.1,65.76c1.78-.68,3.32-1.63,4.63-2.85,1.31-1.22,2.33-2.67,3.06-4.33s1.09-3.49,1.09-5.5-.37-3.79-1.11-5.44-1.76-3.09-3.06-4.31c-1.3-1.22-2.84-2.18-4.61-2.85s-3.71-1.01-5.81-1.01-4.04.34-5.81,1.01-3.31,1.63-4.61,2.87c-1.3,1.24-2.32,2.68-3.06,4.33-.74,1.65-1.11,3.45-1.11,5.4s.37,3.79,1.11,5.46c.74,1.66,1.75,3.11,3.06,4.35,1.3,1.24,2.84,2.19,4.63,2.87,1.79.68,3.72,1.01,5.79,1.01s4.04-.34,5.81-1.01ZM149.49,60.09c-.86-.35-1.62-.86-2.27-1.52-.65-.66-1.15-1.45-1.5-2.36s-.53-1.94-.53-3.09.18-2.18.53-3.09.85-1.7,1.5-2.36c.65-.66,1.41-1.17,2.27-1.52s1.79-.53,2.79-.53,1.93.18,2.79.53,1.61.86,2.25,1.52c.64.66,1.14,1.45,1.5,2.36.36.91.54,1.94.54,3.09s-.18,2.18-.54,3.09c-.36.91-.86,1.7-1.5,2.36-.64.66-1.39,1.17-2.25,1.52-.86.35-1.79.53-2.79.53s-1.93-.17-2.79-.53Z"/>
        <path class="cls-1" d="M9.6,68.4v-18.21h-3.01l15.09,18.21h6.37v-27.36h-7.58v18.21h3.01l-15.05-18.21H2.06v27.36h7.54Z"/>
        <path class="cls-1" d="M79.62,112.01v-10.44h-1.73l8.65,10.44h3.65v-15.68h-4.35v10.44h1.73l-8.63-10.44h-3.65v15.68h4.32Z"/>
        <path class="cls-1" d="M75.68,33.99L60.28,0l-9.61,4.36,15.4,33.99,9.61-4.36Z"/>
        <path class="cls-1" d="M137.05.11h-24.17s0,6.84,0,6.84h24.17s0-6.84,0-6.84Z"/>
        <path class="cls-1" d="M165.03,92.03v-19.99s-5.66,0-5.66,0v19.99s5.66,0,5.66,0Z"/>
        <path class="cls-1" d="M40.16,105.91l3.35-8.34h-1.08l3.35,8.34h2.85l-4.29-9.68h-2.7l-4.27,9.68h2.79ZM45.85,104.01l-.71-2.01h-4.73l-.71,2.01h6.14Z"/>
        <path class="cls-1" d="M85.81,34.56c.59-.23,1.1-.56,1.53-1.02l-.44-.46c-.42.42-.87.71-1.38.89-.5.18-1.04.27-1.6.27-.62,0-1.19-.11-1.72-.32-.53-.21-.99-.51-1.38-.9-.39-.39-.7-.84-.91-1.36-.22-.52-.32-1.08-.32-1.69s.11-1.17.32-1.69c.22-.52.52-.97.91-1.36.39-.39.85-.69,1.38-.9.53-.21,1.1-.32,1.72-.32.56,0,1.09.09,1.6.27s.96.47,1.38.88l.44-.46c-.42-.45-.93-.79-1.53-1.01-.59-.22-1.23-.33-1.92-.33-.72,0-1.38.12-1.99.37-.61.24-1.14.59-1.6,1.03-.46.44-.81.96-1.06,1.56s-.37,1.25-.37,1.96.12,1.36.37,1.96c.25.59.6,1.11,1.05,1.56s.98.79,1.6,1.03,1.28.37,2,.37c.68,0,1.32-.11,1.92-.34Z"/>
        <path class="cls-1" d="M34.04,105.64c.59-.23,1.1-.56,1.53-1.02l-.44-.46c-.42.42-.87.71-1.38.89-.5.18-1.04.27-1.6.27-.62,0-1.19-.11-1.72-.32-.53-.21-.99-.51-1.38-.9-.39-.39-.7-.84-.91-1.36-.22-.52-.32-1.08-.32-1.69s.11-1.17.32-1.69c.22-.52.52-.97.91-1.36.39-.39.85-.69,1.38-.9.53-.21,1.1-.32,1.72-.32.56,0,1.09.09,1.6.27s.96.47,1.38.88l.44-.46c-.42-.45-.93-.79-1.53-1.01-.59-.22-1.23-.33-1.92-.33-.72,0-1.38.12-1.99.37-.61.24-1.14.59-1.6,1.03-.46.44-.81.96-1.06,1.56s-.37,1.25-.37,1.96.12,1.36.37,1.96c.25.59.6,1.11,1.05,1.56s.98.79,1.6,1.03,1.28.37,2,.37c.68,0,1.32-.11,1.92-.34Z"/>
        <path class="cls-1" d="M59.42,32.47c-.58-.26-1.18-.38-1.8-.36v.64c.58,0,1.11.11,1.59.34.48.23.92.54,1.32.94.44.44.77.92.99,1.44.23.52.34,1.06.34,1.61,0,.55-.1,1.09-.31,1.6-.21.52-.53.99-.96,1.42s-.9.75-1.42.96c-.52.21-1.05.32-1.6.31-.55,0-1.09-.12-1.61-.34-.52-.22-1.01-.56-1.44-.99-.4-.4-.71-.84-.94-1.32s-.35-1.01-.35-1.59h-.64c-.02.63.1,1.23.37,1.8.26.58.64,1.11,1.12,1.59.51.51,1.06.89,1.67,1.15.6.26,1.22.39,1.86.4.64,0,1.25-.11,1.85-.35s1.15-.62,1.65-1.12.88-1.05,1.12-1.65c.24-.6.36-1.21.36-1.84s-.14-1.25-.4-1.86-.65-1.16-1.15-1.67c-.48-.48-1.01-.85-1.59-1.12Z"/>
        <path class="cls-1" d="M33.2,25.08L43.45,2.46h-.74l10.29,22.61h1.86L43.96,1.38h-1.73l-10.9,23.69h1.86ZM50.66,18.41l-.57-1.45h-14.18l-.57,1.45h15.33Z"/>
        <path class="cls-1" d="M48.98,54.57c1.51-.69,2.64-1.62,3.37-2.78.74-1.16,1.1-2.41,1.1-3.74,0-1.47-.33-2.67-.98-3.6s-1.51-1.66-2.58-2.21c-1.06-.54-2.22-.99-3.47-1.33s-2.52-.66-3.8-.96c-1.28-.3-2.45-.67-3.52-1.1-1.06-.44-1.91-1.02-2.55-1.76s-.96-1.72-.96-2.94c0-1.06.29-2.02.86-2.88.57-.86,1.46-1.55,2.66-2.07,1.2-.52,2.71-.78,4.54-.78,1.28,0,2.61.2,3.98.59,1.38.4,2.66,1,3.86,1.82l.78-1.67c-1.09-.79-2.41-1.42-3.94-1.88s-3.1-.69-4.68-.69c-2.34,0-4.27.35-5.76,1.06-1.5.71-2.6,1.63-3.31,2.78-.71,1.14-1.06,2.4-1.06,3.76,0,1.5.32,2.72.96,3.66.64.94,1.49,1.68,2.55,2.23s2.23.99,3.52,1.33c1.28.34,2.55.66,3.8.96s2.41.67,3.47,1.1c1.06.44,1.92,1.02,2.58,1.76.65.73.98,1.72.98,2.94,0,1.04-.29,1.98-.88,2.82-.58.85-1.48,1.52-2.7,2.02-1.21.5-2.77.76-4.68.76s-3.71-.35-5.41-1.04c-1.7-.69-3.05-1.55-4.03-2.55l-.94,1.55c1.04,1.15,2.5,2.08,4.39,2.8s3.9,1.08,6.03,1.08c2.37,0,4.31-.35,5.82-1.04Z"/>
        <path class="cls-1" d="M142.04,125.83l11.91-26.25h-.86l11.95,26.25h2.16l-12.65-27.51h-2l-12.66,27.51h2.16ZM162.32,118.09l-.67-1.69h-16.47l-.67,1.69h17.8Z"/>
        <path class="cls-1" d="M141.19,110.17l-6.97,15.36h.51l-6.99-15.36h-1.26l7.4,16.09h1.17l7.4-16.09h-1.26ZM129.33,114.7l.39.99h9.63l.39-.99h-10.41Z"/>
        <path class="cls-1" d="M83.36,9.51c.51-.23.89-.55,1.14-.94.25-.39.37-.81.37-1.27,0-.5-.11-.9-.33-1.22s-.51-.56-.87-.75c-.36-.18-.75-.33-1.18-.45s-.85-.22-1.29-.33c-.43-.1-.83-.23-1.19-.37-.36-.15-.65-.35-.86-.59s-.32-.58-.32-1c0-.36.1-.68.29-.97.19-.29.49-.52.9-.7.41-.18.92-.26,1.54-.26.43,0,.88.07,1.35.2.47.13.9.34,1.31.62l.26-.57c-.37-.27-.81-.48-1.33-.64s-1.05-.23-1.58-.23c-.79,0-1.44.12-1.95.36-.51.24-.88.55-1.12.94-.24.39-.36.81-.36,1.27,0,.51.11.92.32,1.24.22.32.51.57.86.75s.76.33,1.19.45c.43.12.86.22,1.29.33s.82.23,1.18.37c.36.15.65.35.87.59.22.25.33.58.33,1,0,.35-.1.67-.3.95-.2.29-.5.51-.91.68-.41.17-.94.26-1.58.26s-1.26-.12-1.83-.35c-.58-.23-1.03-.52-1.36-.86l-.32.53c.35.39.85.7,1.49.95s1.32.37,2.04.37c.8,0,1.46-.12,1.97-.35Z"/>
        <path class="cls-1" d="M22.35,26.62c.87-.35,1.63-.83,2.27-1.46.64-.63,1.14-1.37,1.5-2.21.36-.84.54-1.77.54-2.78s-.18-1.93-.54-2.78c-.36-.84-.86-1.58-1.5-2.21-.64-.63-1.4-1.12-2.27-1.46-.87-.35-1.82-.52-2.84-.52s-1.97.17-2.84.52-1.63.84-2.28,1.47c-.65.64-1.15,1.38-1.5,2.22-.35.84-.53,1.76-.53,2.76s.18,1.91.53,2.76.85,1.58,1.5,2.22c.65.64,1.41,1.13,2.28,1.47s1.82.52,2.84.52,1.97-.17,2.84-.52ZM17.08,25.76c-.75-.3-1.4-.73-1.95-1.28-.56-.55-.99-1.19-1.3-1.92-.31-.73-.46-1.53-.46-2.4s.15-1.68.46-2.41c.31-.73.74-1.37,1.3-1.92.56-.55,1.21-.97,1.95-1.28.75-.3,1.56-.45,2.43-.45s1.69.15,2.44.45c.75.3,1.39.73,1.94,1.28s.98,1.19,1.29,1.92c.31.73.46,1.53.46,2.41s-.15,1.66-.46,2.4c-.31.73-.74,1.38-1.29,1.92-.55.55-1.2.98-1.94,1.28s-1.56.45-2.44.45-1.69-.15-2.43-.45Z"/>
        <path class="cls-1" d="M123.03,64.11c.87-.35,1.63-.83,2.27-1.46.64-.63,1.14-1.37,1.5-2.21.36-.84.54-1.77.54-2.78s-.18-1.93-.54-2.78c-.36-.84-.86-1.58-1.5-2.21-.64-.63-1.4-1.12-2.27-1.46-.87-.35-1.82-.52-2.84-.52s-1.97.17-2.84.52-1.63.84-2.28,1.47c-.65.64-1.15,1.38-1.5,2.22-.35.84-.53,1.76-.53,2.76s.18,1.91.53,2.76.85,1.58,1.5,2.22c.65.64,1.41,1.13,2.28,1.47s1.82.52,2.84.52,1.97-.17,2.84-.52ZM117.76,63.26c-.75-.3-1.4-.73-1.95-1.28-.56-.55-.99-1.19-1.3-1.92-.31-.73-.46-1.53-.46-2.4s.15-1.68.46-2.41c.31-.73.74-1.37,1.3-1.92.56-.55,1.21-.97,1.95-1.28.75-.3,1.56-.45,2.43-.45s1.69.15,2.44.45c.75.3,1.39.73,1.94,1.28s.98,1.19,1.29,1.92c.31.73.46,1.53.46,2.41s-.15,1.66-.46,2.4c-.31.73-.74,1.38-1.29,1.92-.55.55-1.2.98-1.94,1.28s-1.56.45-2.44.45-1.69-.15-2.43-.45Z"/>
        <path class="cls-1" d="M137.31,108.46c.87-.35,1.63-.83,2.27-1.46.64-.63,1.14-1.37,1.5-2.21.36-.84.54-1.77.54-2.78s-.18-1.93-.54-2.78c-.36-.84-.86-1.58-1.5-2.21-.64-.63-1.4-1.12-2.27-1.46-.87-.35-1.82-.52-2.84-.52s-1.97.17-2.84.52-1.63.84-2.28,1.47c-.65.64-1.15,1.38-1.5,2.22-.35.84-.53,1.76-.53,2.76s.18,1.91.53,2.76.85,1.58,1.5,2.22c.65.64,1.41,1.13,2.28,1.47s1.82.52,2.84.52,1.97-.17,2.84-.52ZM132.04,107.6c-.75-.3-1.4-.73-1.95-1.28-.56-.55-.99-1.19-1.3-1.92-.31-.73-.46-1.53-.46-2.4s.15-1.68.46-2.41c.31-.73.74-1.37,1.3-1.92.56-.55,1.21-.97,1.95-1.28.75-.3,1.56-.45,2.43-.45s1.69.15,2.44.45c.75.3,1.39.73,1.94,1.28s.98,1.19,1.29,1.92c.31.73.46,1.53.46,2.41s-.15,1.66-.46,2.4c-.31.73-.74,1.38-1.29,1.92-.55.55-1.2.98-1.94,1.28s-1.56.45-2.44.45-1.69-.15-2.43-.45Z"/>
        <path class="cls-1" d="M135.19,69.06c.53-.21,1-.51,1.39-.9.39-.39.7-.84.92-1.35.22-.52.33-1.08.33-1.7s-.11-1.19-.33-1.7c-.22-.52-.53-.97-.92-1.35-.39-.39-.86-.68-1.39-.9-.53-.21-1.11-.32-1.74-.32s-1.21.11-1.74.32-1,.51-1.4.9c-.4.39-.7.84-.92,1.36-.22.52-.32,1.08-.32,1.69s.11,1.17.32,1.69.52.97.92,1.36c.4.39.86.69,1.4.9s1.11.32,1.74.32,1.21-.11,1.74-.32ZM131.96,68.54c-.46-.18-.86-.44-1.2-.78-.34-.34-.61-.73-.79-1.18-.19-.45-.28-.94-.28-1.47s.09-1.03.28-1.47c.19-.45.45-.84.79-1.17.34-.34.74-.6,1.2-.78.46-.18.95-.28,1.49-.28s1.03.09,1.49.28c.46.18.85.45,1.19.78s.6.73.79,1.17c.19.44.28.94.28,1.47s-.09,1.02-.28,1.47c-.19.45-.45.84-.79,1.18-.34.34-.73.6-1.19.78s-.95.28-1.49.28-1.03-.09-1.49-.28Z"/>
        <path class="cls-1" d="M73.41,65.81c1.51-.6,2.82-1.45,3.94-2.54,1.11-1.09,1.98-2.37,2.61-3.83.62-1.46.94-3.07.94-4.82s-.31-3.36-.94-4.82c-.63-1.47-1.49-2.74-2.61-3.83-1.11-1.09-2.42-1.94-3.94-2.54-1.51-.6-3.15-.9-4.92-.9s-3.41.3-4.92.9-2.83,1.45-3.95,2.56c-1.12,1.1-1.99,2.39-2.61,3.85-.61,1.46-.92,3.06-.92,4.79s.31,3.32.92,4.79,1.48,2.75,2.61,3.85c1.12,1.1,2.44,1.95,3.95,2.56s3.15.9,4.92.9,3.41-.3,4.92-.9ZM64.26,64.32c-1.29-.52-2.42-1.26-3.39-2.22-.97-.95-1.71-2.07-2.25-3.34-.53-1.27-.8-2.66-.8-4.16s.27-2.91.8-4.17c.53-1.26,1.28-2.37,2.25-3.32.97-.95,2.1-1.69,3.39-2.22,1.29-.52,2.7-.78,4.22-.78s2.93.26,4.23.78c1.29.52,2.42,1.26,3.37,2.22s1.7,2.06,2.23,3.32c.53,1.26.8,2.65.8,4.17s-.27,2.88-.8,4.16c-.53,1.27-1.28,2.39-2.23,3.34-.95.95-2.08,1.69-3.37,2.22s-2.7.78-4.23.78-2.93-.26-4.22-.78Z"/>
        <path class="cls-1" d="M74.63,21.79v-8.81h-.32l6.92,8.81h.58v-9.68h-.71v8.81h.32l-6.9-8.81h-.59v9.68h.71Z"/>
        <path class="cls-1" d="M108.46,21.79v-8.81h-.32l6.92,8.81h.58v-9.68h-.71v8.81h.32l-6.9-8.81h-.59v9.68h.71Z"/>
        <path class="cls-1" d="M103.45,47.36v-8.81h-.32l6.92,8.81h.58v-9.68h-.71v8.81h.32l-6.9-8.81h-.59v9.68h.71Z"/>
        <path class="cls-1" d="M138.35,92.53v-18.65h-.67l14.64,18.65h1.23v-20.49h-1.49v18.65h.67l-14.61-18.65h-1.26v20.49h1.49Z"/>
        <path class="cls-1" d="M113.13,112.08v-12.64h-.46l9.92,12.64h.83v-13.89h-1.01v12.64h.46l-9.9-12.64h-.85v13.89h1.01Z"/>
        <path class="cls-1" d="M129.71,55.16v-5.84h-.21l4.59,5.84h.39v-6.42h-.47v5.84h.21l-4.58-5.84h-.39v6.42h.47Z"/>
        <path class="cls-1" d="M26.16,89.6H6.24v.72l19.92-15.64v-1.31H4.27v1.6h19.92v-.72l-19.92,15.61v1.35h21.89v-1.6Z"/>
        <path class="cls-1" d="M120.19,21.79v-9.68h-.71v9.68h.71Z"/>
        <path class="cls-1" d="M114.51,46.61v-9.68h-.71v9.68h.71Z"/>
        <path class="cls-1" d="M168.02,116.75l-7.3-18.43-1.34.53,7.3,18.43,1.34-.53Z"/>
        <path class="cls-1" d="M130.03,127.19l-5.31-13.4-.98.39,5.31,13.4.98-.39Z"/>
        <path class="cls-1" d="M57.49,92.14l9.28-20.47h-.67l9.32,20.47h1.68l-9.87-21.45h-1.56l-9.87,21.45h1.68ZM73.3,86.1l-.52-1.32h-12.84l-.52,1.32h13.88Z"/>
        <path class="cls-1" d="M61.35,105.91l4.19-9.24h-.3l4.2,9.24h.76l-4.45-9.68h-.71l-4.45,9.68h.76ZM68.48,103.18l-.23-.59h-5.8l-.23.59h6.27Z"/>
        <path class="cls-1" d="M25.98,35.33c2.1-.86,3.88-2.11,5.36-3.77l-2.99-2.9c-1.23,1.32-2.6,2.29-4.14,2.92-1.53.63-3.17.94-4.92.94s-3.49-.3-5.03-.92c-1.55-.61-2.89-1.47-4.02-2.57-1.13-1.1-2.02-2.41-2.64-3.93-.63-1.52-.94-3.16-.94-4.94s.31-3.43.94-4.94c.63-1.52,1.51-2.83,2.64-3.93,1.13-1.1,2.47-1.96,4.02-2.57,1.55-.61,3.22-.92,5.03-.92s3.39.31,4.92.94c1.53.63,2.91,1.59,4.14,2.87l2.99-2.9c-1.47-1.65-3.26-2.9-5.36-3.75-2.1-.84-4.39-1.26-6.87-1.26s-4.71.41-6.78,1.22c-2.07.81-3.87,1.96-5.4,3.45-1.53,1.49-2.73,3.22-3.59,5.22-.86,1.99-1.29,4.18-1.29,6.57s.43,4.58,1.29,6.57c.86,1.99,2.05,3.73,3.56,5.22s3.31,2.63,5.38,3.45,4.33,1.22,6.78,1.22,4.82-.43,6.92-1.29Z"/>
        <path class="cls-1" d="M94.32,66.91c1.08-.44,1.99-1.09,2.75-1.93l-1.53-1.49c-.63.68-1.34,1.18-2.12,1.5-.79.32-1.63.48-2.53.48s-1.79-.16-2.58-.47c-.79-.31-1.48-.75-2.07-1.32-.58-.57-1.04-1.24-1.36-2.02-.32-.78-.48-1.62-.48-2.54s.16-1.76.48-2.54c.32-.78.77-1.45,1.36-2.02.58-.57,1.27-1.01,2.07-1.32.79-.31,1.66-.47,2.58-.47s1.74.16,2.53.48c.79.32,1.49.81,2.12,1.47l1.53-1.49c-.76-.85-1.67-1.49-2.75-1.92-1.08-.43-2.25-.65-3.53-.65s-2.42.21-3.48.63c-1.06.42-1.99,1.01-2.77,1.77-.79.76-1.4,1.66-1.84,2.68-.44,1.02-.66,2.15-.66,3.37s.22,2.35.66,3.37c.44,1.02,1.05,1.91,1.83,2.68s1.7,1.35,2.76,1.77,2.22.63,3.48.63,2.47-.22,3.55-.66Z"/>
        <path class="cls-1" d="M105.61,111.96c1.08-.44,1.99-1.09,2.75-1.93l-1.53-1.49c-.63.68-1.34,1.18-2.12,1.5-.79.32-1.63.48-2.53.48s-1.79-.16-2.58-.47c-.79-.31-1.48-.75-2.07-1.32-.58-.57-1.04-1.24-1.36-2.02-.32-.78-.48-1.62-.48-2.54s.16-1.76.48-2.54c.32-.78.77-1.45,1.36-2.02.58-.57,1.27-1.01,2.07-1.32.79-.31,1.66-.47,2.58-.47s1.74.16,2.53.48c.79.32,1.49.81,2.12,1.47l1.53-1.49c-.76-.85-1.67-1.49-2.75-1.92-1.08-.43-2.25-.65-3.53-.65s-2.42.21-3.48.63c-1.06.42-1.99,1.01-2.77,1.77-.79.76-1.4,1.66-1.84,2.68-.44,1.02-.66,2.15-.66,3.37s.22,2.35.66,3.37c.44,1.02,1.05,1.91,1.83,2.68s1.7,1.35,2.76,1.77,2.22.63,3.48.63,2.47-.22,3.55-.66Z"/>
        <path class="cls-1" d="M90.63,34.46l3.91-8.91h-.55l3.91,8.91h1.45l-4.4-9.68h-1.37l-4.38,9.68h1.42ZM97.3,32.04l-.4-1.11h-5.45l-.37,1.11h6.22Z"/>
        <path class="cls-1" d="M107.13,34.19c.56-.25.97-.59,1.24-1.01.27-.42.4-.87.4-1.36s-.11-.92-.32-1.25-.49-.58-.84-.77c-.35-.19-.73-.35-1.15-.47-.42-.12-.84-.23-1.25-.32-.41-.1-.8-.2-1.14-.33-.35-.12-.63-.28-.84-.48-.22-.2-.33-.48-.33-.82,0-.29.08-.54.24-.77.16-.23.42-.41.77-.55.35-.14.8-.21,1.34-.21.43,0,.88.06,1.34.19s.9.33,1.31.6l.46-1.11c-.41-.28-.89-.49-1.44-.64s-1.11-.22-1.67-.22c-.85,0-1.55.13-2.1.38-.55.25-.95.59-1.22,1.01-.26.42-.39.88-.39,1.38s.11.94.32,1.27c.21.33.49.59.84.78.35.19.73.35,1.15.48.42.12.84.23,1.25.32.41.09.8.2,1.14.33s.63.29.84.49c.22.2.32.47.32.8,0,.29-.08.54-.25.77-.17.23-.42.4-.77.53s-.81.19-1.37.19c-.62,0-1.21-.11-1.78-.32-.57-.21-1.04-.48-1.41-.8l-.51,1.08c.39.36.92.65,1.59.88.67.23,1.38.34,2.12.34.85,0,1.55-.13,2.11-.38Z"/>
        <path class="cls-1" d="M86.97,47.09c.56-.25.97-.59,1.24-1.01.27-.42.4-.87.4-1.36s-.11-.92-.32-1.25-.49-.58-.84-.77c-.35-.19-.73-.35-1.15-.47-.42-.12-.84-.23-1.25-.32-.41-.1-.8-.2-1.14-.33-.35-.12-.63-.28-.84-.48-.22-.2-.33-.48-.33-.82,0-.29.08-.54.24-.77.16-.23.42-.41.77-.55.35-.14.8-.21,1.34-.21.43,0,.88.06,1.34.19s.9.33,1.31.6l.46-1.11c-.41-.28-.89-.49-1.44-.64s-1.11-.22-1.67-.22c-.85,0-1.55.13-2.1.38-.55.25-.95.59-1.22,1.01-.26.42-.39.88-.39,1.38s.11.94.32,1.27c.21.33.49.59.84.78.35.19.73.35,1.15.48.42.12.84.23,1.25.32.41.09.8.2,1.14.33s.63.29.84.49c.22.2.32.47.32.8,0,.29-.08.54-.25.77-.17.23-.42.4-.77.53s-.81.19-1.37.19c-.62,0-1.21-.11-1.78-.32-.57-.21-1.04-.48-1.41-.8l-.51,1.08c.39.36.92.65,1.59.88.67.23,1.38.34,2.12.34.85,0,1.55-.13,2.11-.38Z"/>
        <path class="cls-1" d="M159.43,34.53c1.91-.87,3.32-2.02,4.23-3.45.91-1.43,1.37-2.99,1.37-4.66s-.36-3.15-1.09-4.26-1.68-1.99-2.86-2.65c-1.18-.66-2.49-1.2-3.93-1.61-1.44-.41-2.86-.78-4.28-1.11-1.42-.33-2.72-.7-3.9-1.11-1.18-.41-2.14-.96-2.88-1.65-.74-.69-1.11-1.62-1.11-2.79,0-.98.28-1.86.83-2.65.55-.79,1.43-1.42,2.62-1.89,1.2-.47,2.73-.71,4.59-.71,1.48,0,3.01.21,4.59.64s3.07,1.11,4.49,2.06l1.56-3.78c-1.39-.95-3.03-1.67-4.92-2.17s-3.8-.76-5.72-.76c-2.9,0-5.29.43-7.16,1.3-1.88.87-3.26,2.02-4.16,3.45-.9,1.44-1.35,3-1.35,4.71s.36,3.21,1.09,4.33c.72,1.12,1.68,2.01,2.86,2.67,1.18.66,2.49,1.21,3.92,1.63,1.44.43,2.86.8,4.28,1.11,1.42.32,2.72.69,3.9,1.11s2.14.99,2.89,1.68c.74.69,1.11,1.61,1.11,2.74,0,.98-.28,1.85-.85,2.62-.57.77-1.45,1.38-2.65,1.82s-2.76.66-4.68.66c-2.11,0-4.15-.36-6.1-1.09-1.95-.72-3.56-1.64-4.82-2.74l-1.75,3.69c1.32,1.23,3.14,2.23,5.44,3,2.3.77,4.71,1.16,7.24,1.16,2.9,0,5.3-.43,7.21-1.3Z"/>
        <path class="cls-1" d="M4.69,128l12.87-29.29h-1.82l12.87,29.29h4.78l-14.47-31.84h-4.5L0,128h4.69ZM26.61,120.04l-1.32-3.64H7.37l-1.23,3.64h20.47Z"/>
        <path class="cls-1" d="M70.55,60.19c.56-.25.97-.59,1.24-1.01.27-.42.4-.87.4-1.36s-.11-.92-.32-1.25-.49-.58-.84-.77c-.35-.19-.73-.35-1.15-.47-.42-.12-.84-.23-1.25-.32-.41-.1-.8-.2-1.14-.33-.35-.12-.63-.28-.84-.48-.22-.2-.33-.48-.33-.82,0-.29.08-.54.24-.77.16-.23.42-.41.77-.55.35-.14.8-.21,1.34-.21.43,0,.88.06,1.34.19s.9.33,1.31.6l.46-1.11c-.41-.28-.89-.49-1.44-.64s-1.11-.22-1.67-.22c-.85,0-1.55.13-2.1.38-.55.25-.95.59-1.22,1.01-.26.42-.39.88-.39,1.38s.11.94.32,1.27c.21.33.49.59.84.78.35.19.73.35,1.15.48.42.12.84.23,1.25.32.41.09.8.2,1.14.33s.63.29.84.49c.22.2.32.47.32.8,0,.29-.08.54-.25.77-.17.23-.42.4-.77.53s-.81.19-1.37.19c-.62,0-1.21-.11-1.78-.32-.57-.21-1.04-.48-1.41-.8l-.51,1.08c.39.36.92.65,1.59.88.67.23,1.38.34,2.12.34.85,0,1.55-.13,2.11-.38Z"/>
        <path class="cls-1" d="M90.7,21.52c.56-.25.97-.59,1.24-1.01.27-.42.4-.87.4-1.36s-.11-.92-.32-1.25-.49-.58-.84-.77c-.35-.19-.73-.35-1.15-.47-.42-.12-.84-.23-1.25-.32-.41-.1-.8-.2-1.14-.33-.35-.12-.63-.28-.84-.48-.22-.2-.33-.48-.33-.82,0-.29.08-.54.24-.77.16-.23.42-.41.77-.55.35-.14.8-.21,1.34-.21.43,0,.88.06,1.34.19s.9.33,1.31.6l.46-1.11c-.41-.28-.89-.49-1.44-.64s-1.11-.22-1.67-.22c-.85,0-1.55.13-2.1.38-.55.25-.95.59-1.22,1.01-.26.42-.39.88-.39,1.38s.11.94.32,1.27c.21.33.49.59.84.78.35.19.73.35,1.15.48.42.12.84.23,1.25.32.41.09.8.2,1.14.33s.63.29.84.49c.22.2.32.47.32.8,0,.29-.08.54-.25.77-.17.23-.42.4-.77.53s-.81.19-1.37.19c-.62,0-1.21-.11-1.78-.32-.57-.21-1.04-.48-1.41-.8l-.51,1.08c.39.36.92.65,1.59.88.67.23,1.38.34,2.12.34.85,0,1.55-.13,2.11-.38Z"/>
        <path class="cls-1" d="M56.95,105.64c.56-.25.97-.59,1.24-1.01.27-.42.4-.87.4-1.36s-.11-.92-.32-1.25-.49-.58-.84-.77c-.35-.19-.73-.35-1.15-.47-.42-.12-.84-.23-1.25-.32-.41-.1-.8-.2-1.14-.33-.35-.12-.63-.28-.84-.48-.22-.2-.33-.48-.33-.82,0-.29.08-.54.24-.77.16-.23.42-.41.77-.55.35-.14.8-.21,1.34-.21.43,0,.88.06,1.34.19s.9.33,1.31.6l.46-1.11c-.41-.28-.89-.49-1.44-.64s-1.11-.22-1.67-.22c-.85,0-1.55.13-2.1.38-.55.25-.95.59-1.22,1.01-.26.42-.39.88-.39,1.38s.11.94.32,1.27c.21.33.49.59.84.78.35.19.73.35,1.15.48.42.12.84.23,1.25.32.41.09.8.2,1.14.33s.63.29.84.49c.22.2.32.47.32.8,0,.29-.08.54-.25.77-.17.23-.42.4-.77.53s-.81.19-1.37.19c-.62,0-1.21-.11-1.78-.32-.57-.21-1.04-.48-1.41-.8l-.51,1.08c.39.36.92.65,1.59.88.67.23,1.38.34,2.12.34.85,0,1.55-.13,2.11-.38Z"/>
        <path class="cls-1" d="M72.6,9.54c.63-.24,1.17-.59,1.63-1.04s.82-.97,1.07-1.57c.25-.6.38-1.26.38-1.98s-.13-1.37-.38-1.97c-.25-.6-.61-1.13-1.07-1.58-.46-.45-1-.79-1.63-1.04-.63-.24-1.31-.37-2.05-.37s-1.43.12-2.06.37-1.17.6-1.63,1.04c-.46.45-.82.97-1.08,1.57-.26.6-.39,1.25-.39,1.96s.13,1.36.39,1.96c.26.6.62,1.12,1.08,1.57.46.45,1.01.8,1.64,1.04.63.25,1.32.37,2.05.37s1.42-.12,2.05-.37ZM69.05,8.4c-.46-.18-.86-.44-1.2-.78-.34-.34-.61-.73-.8-1.18-.19-.45-.28-.94-.28-1.48s.09-1.03.28-1.47c.19-.45.45-.84.8-1.18.34-.34.74-.6,1.2-.79.46-.18.95-.28,1.49-.28s1.04.09,1.5.28c.46.18.85.45,1.19.79.34.34.6.74.79,1.18.19.45.28.94.28,1.47s-.09,1.03-.28,1.48-.45.85-.79,1.18c-.34.34-.73.6-1.19.78-.46.18-.96.28-1.5.28s-1.03-.09-1.49-.28Z"/>
        <path class="cls-1" d="M97.76,47.1c.63-.24,1.17-.59,1.63-1.04s.82-.97,1.07-1.57c.25-.6.38-1.26.38-1.98s-.13-1.37-.38-1.97c-.25-.6-.61-1.13-1.07-1.58-.46-.45-1-.79-1.63-1.04-.63-.24-1.31-.37-2.05-.37s-1.43.12-2.06.37-1.17.6-1.63,1.04c-.46.45-.82.97-1.08,1.57-.26.6-.39,1.25-.39,1.96s.13,1.36.39,1.96c.26.6.62,1.12,1.08,1.57.46.45,1.01.8,1.64,1.04.63.25,1.32.37,2.05.37s1.42-.12,2.05-.37ZM94.21,45.96c-.46-.18-.86-.44-1.2-.78-.34-.34-.61-.73-.8-1.18-.19-.45-.28-.94-.28-1.48s.09-1.03.28-1.47c.19-.45.45-.84.8-1.18.34-.34.74-.6,1.2-.79.46-.18.95-.28,1.49-.28s1.04.09,1.5.28c.46.18.85.45,1.19.79.34.34.6.74.79,1.18.19.45.28.94.28,1.47s-.09,1.03-.28,1.48-.45.85-.79,1.18c-.34.34-.73.6-1.19.78-.46.18-.96.28-1.5.28s-1.03-.09-1.49-.28Z"/>
        <path class="cls-1" d="M112.38,34.46l3.91-8.91h-.55l3.91,8.91h1.45l-4.4-9.68h-1.37l-4.38,9.68h1.42ZM119.04,32.04l-.4-1.11h-5.45l-.37,1.11h6.22Z"/>
        <g class="cls-2">
          <path class="cls-5" d="M43.99,125.73c.63-.26,1.17-.64,1.61-1.13l-.9-.87c-.37.4-.78.69-1.24.88-.46.19-.95.28-1.48.28s-1.05-.09-1.51-.28c-.47-.18-.87-.44-1.21-.77-.34-.33-.61-.73-.8-1.18-.19-.46-.28-.95-.28-1.49s.09-1.03.28-1.49c.19-.46.45-.85.8-1.18.34-.33.74-.59,1.21-.77.47-.18.97-.28,1.51-.28s1.02.09,1.48.28c.46.19.88.48,1.24.86l.9-.87c-.44-.5-.98-.87-1.61-1.13-.63-.25-1.32-.38-2.07-.38s-1.42.12-2.04.37c-.62.24-1.16.59-1.63,1.04-.46.45-.82.97-1.08,1.57-.26.6-.39,1.26-.39,1.98s.13,1.38.39,1.98c.26.6.62,1.12,1.07,1.57s1,.79,1.62,1.04,1.3.37,2.04.37,1.45-.13,2.08-.39Z"/>
          <path class="cls-5" d="M47.3,126l3.91-8.91h-.55l3.91,8.91h1.45l-4.4-9.68h-1.37l-4.38,9.68h1.42ZM53.97,123.58l-.4-1.11h-5.45l-.37,1.11h6.22Z"/>
          <path class="cls-5" d="M62.4,125.73c.56-.25.97-.59,1.24-1.01.27-.42.4-.87.4-1.36s-.11-.92-.32-1.25-.49-.58-.84-.77c-.35-.19-.73-.35-1.15-.47-.42-.12-.84-.23-1.25-.32-.41-.1-.8-.2-1.14-.33-.35-.12-.63-.28-.84-.48-.22-.2-.33-.48-.33-.82,0-.29.08-.54.24-.77.16-.23.42-.41.77-.55.35-.14.8-.21,1.34-.21.43,0,.88.06,1.34.19s.9.33,1.31.6l.46-1.11c-.41-.28-.89-.49-1.44-.64s-1.11-.22-1.67-.22c-.85,0-1.55.13-2.1.38-.55.25-.95.59-1.22,1.01-.26.42-.39.88-.39,1.38s.11.94.32,1.27c.21.33.49.59.84.78.35.19.73.35,1.15.48.42.12.84.23,1.25.32.41.09.8.2,1.14.33s.63.29.84.49c.22.2.32.47.32.8,0,.29-.08.54-.25.77-.17.23-.42.4-.77.53s-.81.19-1.37.19c-.62,0-1.21-.11-1.78-.32-.57-.21-1.04-.48-1.41-.8l-.51,1.08c.39.36.92.65,1.59.88.67.23,1.38.34,2.12.34.85,0,1.55-.13,2.11-.38Z"/>
          <path class="cls-5" d="M66.01,126l3.91-8.91h-.55l3.91,8.91h1.45l-4.4-9.68h-1.37l-4.38,9.68h1.42ZM72.68,123.58l-.4-1.11h-5.45l-.37,1.11h6.22Z"/>
          <path class="cls-5" d="M84.83,125.73c.56-.25.97-.59,1.24-1.01.27-.42.4-.87.4-1.36s-.11-.92-.32-1.25-.49-.58-.84-.77c-.35-.19-.73-.35-1.15-.47-.42-.12-.84-.23-1.25-.32-.41-.1-.8-.2-1.14-.33-.35-.12-.63-.28-.84-.48-.22-.2-.33-.48-.33-.82,0-.29.08-.54.24-.77.16-.23.42-.41.77-.55.35-.14.8-.21,1.34-.21.43,0,.88.06,1.34.19s.9.33,1.31.6l.46-1.11c-.41-.28-.89-.49-1.44-.64s-1.11-.22-1.67-.22c-.85,0-1.55.13-2.1.38-.55.25-.95.59-1.22,1.01-.26.42-.39.88-.39,1.38s.11.94.32,1.27c.21.33.49.59.84.78.35.19.73.35,1.15.48.42.12.84.23,1.25.32.41.09.8.2,1.14.33s.63.29.84.49c.22.2.32.47.32.8,0,.29-.08.54-.25.77-.17.23-.42.4-.77.53s-.81.19-1.37.19c-.62,0-1.21-.11-1.78-.32-.57-.21-1.04-.48-1.41-.8l-.51,1.08c.39.36.92.65,1.59.88.67.23,1.38.34,2.12.34.85,0,1.55-.13,2.11-.38Z"/>
          <path class="cls-5" d="M94.91,125.75c.63-.24,1.17-.59,1.63-1.04s.82-.97,1.07-1.57c.25-.6.38-1.26.38-1.98s-.13-1.37-.38-1.97c-.25-.6-.61-1.13-1.07-1.58-.46-.45-1-.79-1.63-1.04-.63-.24-1.31-.37-2.05-.37s-1.43.12-2.06.37-1.17.6-1.63,1.04c-.46.45-.82.97-1.08,1.57-.26.6-.39,1.25-.39,1.96s.13,1.36.39,1.96c.26.6.62,1.12,1.08,1.57.46.45,1.01.8,1.64,1.04.63.25,1.32.37,2.05.37s1.42-.12,2.05-.37ZM91.36,124.61c-.46-.18-.86-.44-1.2-.78-.34-.34-.61-.73-.8-1.18-.19-.45-.28-.94-.28-1.48s.09-1.03.28-1.47c.19-.45.45-.84.8-1.18.34-.34.74-.6,1.2-.79.46-.18.95-.28,1.49-.28s1.04.09,1.5.28c.46.18.85.45,1.19.79.34.34.6.74.79,1.18.19.45.28.94.28,1.47s-.09,1.03-.28,1.48-.45.85-.79,1.18c-.34.34-.73.6-1.19.78-.46.18-.96.28-1.5.28s-1.03-.09-1.49-.28Z"/>
          <path class="cls-5" d="M101.49,126v-7.95h-.59l6.4,7.95h1.13v-9.68h-1.38v7.95h.59l-6.4-7.95h-1.13v9.68h1.38Z"/>
          <path class="cls-5" d="M112.72,126v-9.68h-1.38v9.68h1.38Z"/>
          <path class="cls-5" d="M115.59,126l3.91-8.91h-.55l3.91,8.91h1.45l-4.4-9.68h-1.37l-4.38,9.68h1.42ZM122.25,123.58l-.4-1.11h-5.45l-.37,1.11h6.22Z"/>
        </g>
      </g>
    </pattern>
  </defs>
  <rect class="cls-3" x="-293.85" y="275.17" width="1307.69" height="729.65" transform="translate(-280 1000) rotate(-90)"/>
  <polygon class="cls-6" points="-4.48 -13.23 -4.48 1293.23 724.48 1293.23 724.48 -13.23 -4.48 -13.23"/>
</svg>